<mxfile host="app.diagrams.net" modified="2020-12-06T12:56:02.660Z" agent="5.0 (Windows)" etag="JWb6GkK3LPjdnmuNTl9n" version="13.10.9" type="github">
  <diagram id="a45cf8ec-cd66-6f27-3ac3-be6e809c9e4a" name="Page-1">
    <mxGraphModel dx="1695" dy="451" grid="1" gridSize="10" guides="1" tooltips="1" connect="1" arrows="1" fold="1" page="1" pageScale="1" pageWidth="827" pageHeight="1169" background="#ffffff" math="0" shadow="0">
      <root>
        <mxCell id="0" />
        <mxCell id="1" parent="0" />
        <mxCell id="19" value="Internet" style="ellipse;shape=cloud;whiteSpace=wrap;html=1;shadow=0;strokeColor=#23445D;fillColor=#BAC8D3;gradientColor=none;fontSize=18;fontColor=#23445D;gradientDirection=north;fontStyle=0;strokeWidth=2;" parent="1" vertex="1">
          <mxGeometry x="780" y="390" width="120" height="80" as="geometry" />
        </mxCell>
        <mxCell id="zaZijYf2OnXckmwoSaqb-184" style="edgeStyle=orthogonalEdgeStyle;rounded=0;orthogonalLoop=1;jettySize=auto;html=1;" edge="1" parent="1" source="80" target="zaZijYf2OnXckmwoSaqb-181">
          <mxGeometry relative="1" as="geometry" />
        </mxCell>
        <mxCell id="80" value="" style="image;html=1;image=img/lib/clip_art/computers/Workstation_128x128.png;shadow=0;strokeColor=#000000;fillColor=#FFFFFF;gradientColor=none;fontSize=18;fontColor=#F08705;fontStyle=0" parent="1" vertex="1">
          <mxGeometry x="414" y="150" width="80" height="80" as="geometry" />
        </mxCell>
        <mxCell id="168" value="Сеть компании БЦ-Мед" style="text;html=1;strokeColor=none;fillColor=none;align=center;verticalAlign=middle;whiteSpace=wrap;overflow=hidden;shadow=0;fontSize=36;fontColor=#AE4132;fontStyle=0" parent="1" vertex="1">
          <mxGeometry x="137" y="15" width="1380" height="45" as="geometry" />
        </mxCell>
        <mxCell id="171" style="edgeStyle=orthogonalEdgeStyle;rounded=0;jumpStyle=none;html=1;exitX=0;exitY=0.5;entryX=0;entryY=0.5;shadow=0;labelBackgroundColor=none;startArrow=none;startFill=0;endArrow=classic;endFill=1;endSize=6;jettySize=auto;orthogonalLoop=1;strokeColor=#23445D;strokeWidth=2;fillColor=#F08705;fontFamily=Helvetica;fontSize=14;fontColor=#F08705;align=left;fontStyle=0" parent="1" source="168" target="168" edge="1">
          <mxGeometry relative="1" as="geometry" />
        </mxCell>
        <mxCell id="zaZijYf2OnXckmwoSaqb-185" style="edgeStyle=orthogonalEdgeStyle;rounded=0;orthogonalLoop=1;jettySize=auto;html=1;" edge="1" parent="1" source="zaZijYf2OnXckmwoSaqb-175" target="zaZijYf2OnXckmwoSaqb-181">
          <mxGeometry relative="1" as="geometry" />
        </mxCell>
        <mxCell id="zaZijYf2OnXckmwoSaqb-175" value="" style="verticalLabelPosition=bottom;aspect=fixed;html=1;verticalAlign=top;strokeColor=none;align=center;outlineConnect=0;shape=mxgraph.citrix.cell_phone;" vertex="1" parent="1">
          <mxGeometry x="540" y="160" width="25" height="60" as="geometry" />
        </mxCell>
        <mxCell id="zaZijYf2OnXckmwoSaqb-176" value="Офис Одинцово" style="text;html=1;strokeColor=none;fillColor=none;align=center;verticalAlign=middle;whiteSpace=wrap;overflow=hidden;shadow=0;fontSize=36;fontColor=#AE4132;fontStyle=0" vertex="1" parent="1">
          <mxGeometry x="-290" y="80" width="1380" height="45" as="geometry" />
        </mxCell>
        <mxCell id="zaZijYf2OnXckmwoSaqb-183" style="edgeStyle=orthogonalEdgeStyle;rounded=0;orthogonalLoop=1;jettySize=auto;html=1;" edge="1" parent="1" source="zaZijYf2OnXckmwoSaqb-177" target="zaZijYf2OnXckmwoSaqb-181">
          <mxGeometry relative="1" as="geometry">
            <Array as="points">
              <mxPoint x="360" y="288" />
            </Array>
          </mxGeometry>
        </mxCell>
        <mxCell id="zaZijYf2OnXckmwoSaqb-177" value="" style="verticalLabelPosition=bottom;aspect=fixed;html=1;verticalAlign=top;strokeColor=none;align=center;outlineConnect=0;shape=mxgraph.citrix.printer;" vertex="1" parent="1">
          <mxGeometry x="300" y="150" width="70" height="70" as="geometry" />
        </mxCell>
        <mxCell id="zaZijYf2OnXckmwoSaqb-178" value="Офис Владимирский" style="text;html=1;strokeColor=none;fillColor=none;align=center;verticalAlign=middle;whiteSpace=wrap;overflow=hidden;shadow=0;fontSize=36;fontColor=#AE4132;fontStyle=0" vertex="1" parent="1">
          <mxGeometry x="460" y="80" width="1380" height="45" as="geometry" />
        </mxCell>
        <mxCell id="zaZijYf2OnXckmwoSaqb-180" style="edgeStyle=orthogonalEdgeStyle;rounded=0;orthogonalLoop=1;jettySize=auto;html=1;entryX=0.16;entryY=0.55;entryDx=0;entryDy=0;entryPerimeter=0;" edge="1" parent="1" source="zaZijYf2OnXckmwoSaqb-179" target="19">
          <mxGeometry relative="1" as="geometry" />
        </mxCell>
        <mxCell id="zaZijYf2OnXckmwoSaqb-179" value="" style="verticalLabelPosition=bottom;aspect=fixed;html=1;verticalAlign=top;strokeColor=none;align=center;outlineConnect=0;shape=mxgraph.citrix.firewall;" vertex="1" parent="1">
          <mxGeometry x="630" y="260" width="48.39" height="60" as="geometry" />
        </mxCell>
        <mxCell id="zaZijYf2OnXckmwoSaqb-182" style="edgeStyle=orthogonalEdgeStyle;rounded=0;orthogonalLoop=1;jettySize=auto;html=1;" edge="1" parent="1" source="zaZijYf2OnXckmwoSaqb-181" target="zaZijYf2OnXckmwoSaqb-179">
          <mxGeometry relative="1" as="geometry" />
        </mxCell>
        <mxCell id="zaZijYf2OnXckmwoSaqb-181" value="" style="verticalLabelPosition=bottom;aspect=fixed;html=1;verticalAlign=top;strokeColor=none;align=center;outlineConnect=0;shape=mxgraph.citrix.netscaler_vpx;" vertex="1" parent="1">
          <mxGeometry x="468" y="270" width="97" height="36" as="geometry" />
        </mxCell>
        <mxCell id="zaZijYf2OnXckmwoSaqb-192" style="edgeStyle=orthogonalEdgeStyle;rounded=0;orthogonalLoop=1;jettySize=auto;html=1;entryX=0.75;entryY=0.125;entryDx=0;entryDy=0;entryPerimeter=0;" edge="1" parent="1" source="zaZijYf2OnXckmwoSaqb-189" target="19">
          <mxGeometry relative="1" as="geometry" />
        </mxCell>
        <mxCell id="zaZijYf2OnXckmwoSaqb-189" value="" style="verticalLabelPosition=bottom;aspect=fixed;html=1;verticalAlign=top;strokeColor=none;align=center;outlineConnect=0;shape=mxgraph.citrix.firewall;" vertex="1" parent="1">
          <mxGeometry x="900" y="258" width="48.39" height="60" as="geometry" />
        </mxCell>
        <mxCell id="zaZijYf2OnXckmwoSaqb-190" style="edgeStyle=orthogonalEdgeStyle;rounded=0;orthogonalLoop=1;jettySize=auto;html=1;" edge="1" parent="1" source="zaZijYf2OnXckmwoSaqb-191" target="zaZijYf2OnXckmwoSaqb-189">
          <mxGeometry relative="1" as="geometry" />
        </mxCell>
        <mxCell id="zaZijYf2OnXckmwoSaqb-191" value="" style="verticalLabelPosition=bottom;aspect=fixed;html=1;verticalAlign=top;strokeColor=none;align=center;outlineConnect=0;shape=mxgraph.citrix.netscaler_vpx;" vertex="1" parent="1">
          <mxGeometry x="1038" y="270" width="97" height="36" as="geometry" />
        </mxCell>
        <mxCell id="zaZijYf2OnXckmwoSaqb-197" style="edgeStyle=orthogonalEdgeStyle;rounded=0;orthogonalLoop=1;jettySize=auto;html=1;" edge="1" parent="1" source="zaZijYf2OnXckmwoSaqb-193" target="zaZijYf2OnXckmwoSaqb-191">
          <mxGeometry relative="1" as="geometry" />
        </mxCell>
        <mxCell id="zaZijYf2OnXckmwoSaqb-193" value="" style="verticalLabelPosition=bottom;aspect=fixed;html=1;verticalAlign=top;strokeColor=none;align=center;outlineConnect=0;shape=mxgraph.citrix.printer;" vertex="1" parent="1">
          <mxGeometry x="948.39" y="150" width="70" height="70" as="geometry" />
        </mxCell>
        <mxCell id="zaZijYf2OnXckmwoSaqb-198" style="edgeStyle=orthogonalEdgeStyle;rounded=0;orthogonalLoop=1;jettySize=auto;html=1;" edge="1" parent="1" source="zaZijYf2OnXckmwoSaqb-194" target="zaZijYf2OnXckmwoSaqb-191">
          <mxGeometry relative="1" as="geometry" />
        </mxCell>
        <mxCell id="zaZijYf2OnXckmwoSaqb-194" value="" style="image;html=1;image=img/lib/clip_art/computers/Workstation_128x128.png;shadow=0;strokeColor=#000000;fillColor=#FFFFFF;gradientColor=none;fontSize=18;fontColor=#F08705;fontStyle=0" vertex="1" parent="1">
          <mxGeometry x="1100" y="125" width="80" height="80" as="geometry" />
        </mxCell>
        <mxCell id="zaZijYf2OnXckmwoSaqb-199" style="edgeStyle=orthogonalEdgeStyle;rounded=0;orthogonalLoop=1;jettySize=auto;html=1;entryX=0.928;entryY=0.25;entryDx=0;entryDy=0;entryPerimeter=0;" edge="1" parent="1" source="zaZijYf2OnXckmwoSaqb-195" target="zaZijYf2OnXckmwoSaqb-191">
          <mxGeometry relative="1" as="geometry">
            <Array as="points">
              <mxPoint x="1200" y="279" />
            </Array>
          </mxGeometry>
        </mxCell>
        <mxCell id="zaZijYf2OnXckmwoSaqb-195" value="" style="verticalLabelPosition=bottom;aspect=fixed;html=1;verticalAlign=top;strokeColor=none;align=center;outlineConnect=0;shape=mxgraph.citrix.cell_phone;" vertex="1" parent="1">
          <mxGeometry x="1210" y="125" width="25" height="60" as="geometry" />
        </mxCell>
        <mxCell id="zaZijYf2OnXckmwoSaqb-205" style="edgeStyle=orthogonalEdgeStyle;rounded=0;orthogonalLoop=1;jettySize=auto;html=1;" edge="1" parent="1" source="zaZijYf2OnXckmwoSaqb-196">
          <mxGeometry relative="1" as="geometry">
            <mxPoint x="1140" y="290" as="targetPoint" />
            <Array as="points">
              <mxPoint x="1375" y="280" />
              <mxPoint x="1140" y="280" />
            </Array>
          </mxGeometry>
        </mxCell>
        <mxCell id="zaZijYf2OnXckmwoSaqb-196" value="" style="verticalLabelPosition=bottom;aspect=fixed;html=1;verticalAlign=top;strokeColor=none;align=center;outlineConnect=0;shape=mxgraph.citrix.printer;" vertex="1" parent="1">
          <mxGeometry x="1340" y="150" width="70" height="70" as="geometry" />
        </mxCell>
        <mxCell id="zaZijYf2OnXckmwoSaqb-208" style="edgeStyle=orthogonalEdgeStyle;rounded=0;orthogonalLoop=1;jettySize=auto;html=1;" edge="1" parent="1" source="zaZijYf2OnXckmwoSaqb-201" target="zaZijYf2OnXckmwoSaqb-191">
          <mxGeometry relative="1" as="geometry" />
        </mxCell>
        <mxCell id="zaZijYf2OnXckmwoSaqb-201" value="" style="image;html=1;image=img/lib/clip_art/computers/Workstation_128x128.png;shadow=0;strokeColor=#000000;fillColor=#FFFFFF;gradientColor=none;fontSize=18;fontColor=#F08705;fontStyle=0" vertex="1" parent="1">
          <mxGeometry x="1450" y="140" width="80" height="80" as="geometry" />
        </mxCell>
        <mxCell id="zaZijYf2OnXckmwoSaqb-209" style="edgeStyle=orthogonalEdgeStyle;rounded=0;orthogonalLoop=1;jettySize=auto;html=1;" edge="1" parent="1" source="zaZijYf2OnXckmwoSaqb-202" target="zaZijYf2OnXckmwoSaqb-191">
          <mxGeometry relative="1" as="geometry" />
        </mxCell>
        <mxCell id="zaZijYf2OnXckmwoSaqb-202" value="" style="verticalLabelPosition=bottom;aspect=fixed;html=1;verticalAlign=top;strokeColor=none;align=center;outlineConnect=0;shape=mxgraph.citrix.cell_phone;" vertex="1" parent="1">
          <mxGeometry x="1570" y="155" width="25" height="60" as="geometry" />
        </mxCell>
        <mxCell id="zaZijYf2OnXckmwoSaqb-206" style="edgeStyle=orthogonalEdgeStyle;rounded=0;orthogonalLoop=1;jettySize=auto;html=1;" edge="1" parent="1" source="zaZijYf2OnXckmwoSaqb-203" target="zaZijYf2OnXckmwoSaqb-191">
          <mxGeometry relative="1" as="geometry" />
        </mxCell>
        <mxCell id="zaZijYf2OnXckmwoSaqb-203" value="" style="image;html=1;image=img/lib/clip_art/computers/Workstation_128x128.png;shadow=0;strokeColor=#000000;fillColor=#FFFFFF;gradientColor=none;fontSize=18;fontColor=#F08705;fontStyle=0" vertex="1" parent="1">
          <mxGeometry x="1290" y="300" width="80" height="80" as="geometry" />
        </mxCell>
        <mxCell id="zaZijYf2OnXckmwoSaqb-207" style="edgeStyle=orthogonalEdgeStyle;rounded=0;orthogonalLoop=1;jettySize=auto;html=1;entryX=0.948;entryY=0.278;entryDx=0;entryDy=0;entryPerimeter=0;" edge="1" parent="1" source="zaZijYf2OnXckmwoSaqb-204" target="zaZijYf2OnXckmwoSaqb-191">
          <mxGeometry relative="1" as="geometry" />
        </mxCell>
        <mxCell id="zaZijYf2OnXckmwoSaqb-204" value="" style="verticalLabelPosition=bottom;aspect=fixed;html=1;verticalAlign=top;strokeColor=none;align=center;outlineConnect=0;shape=mxgraph.citrix.cell_phone;" vertex="1" parent="1">
          <mxGeometry x="1400" y="306" width="25" height="60" as="geometry" />
        </mxCell>
        <mxCell id="zaZijYf2OnXckmwoSaqb-211" style="edgeStyle=orthogonalEdgeStyle;rounded=0;orthogonalLoop=1;jettySize=auto;html=1;" edge="1" parent="1" source="zaZijYf2OnXckmwoSaqb-210" target="19">
          <mxGeometry relative="1" as="geometry" />
        </mxCell>
        <mxCell id="zaZijYf2OnXckmwoSaqb-210" value="" style="verticalLabelPosition=bottom;aspect=fixed;html=1;verticalAlign=top;strokeColor=none;align=center;outlineConnect=0;shape=mxgraph.citrix.firewall;" vertex="1" parent="1">
          <mxGeometry x="815.8" y="550" width="48.39" height="60" as="geometry" />
        </mxCell>
        <mxCell id="zaZijYf2OnXckmwoSaqb-213" style="edgeStyle=orthogonalEdgeStyle;rounded=0;orthogonalLoop=1;jettySize=auto;html=1;entryX=-0.12;entryY=0.583;entryDx=0;entryDy=0;entryPerimeter=0;" edge="1" parent="1" source="zaZijYf2OnXckmwoSaqb-212" target="zaZijYf2OnXckmwoSaqb-210">
          <mxGeometry relative="1" as="geometry">
            <mxPoint x="800" y="585" as="targetPoint" />
          </mxGeometry>
        </mxCell>
        <mxCell id="zaZijYf2OnXckmwoSaqb-212" value="" style="verticalLabelPosition=bottom;aspect=fixed;html=1;verticalAlign=top;strokeColor=none;align=center;outlineConnect=0;shape=mxgraph.citrix.netscaler_vpx;" vertex="1" parent="1">
          <mxGeometry x="630" y="567" width="97" height="36" as="geometry" />
        </mxCell>
        <mxCell id="zaZijYf2OnXckmwoSaqb-214" value="" style="verticalLabelPosition=bottom;aspect=fixed;html=1;verticalAlign=top;strokeColor=none;align=center;outlineConnect=0;shape=mxgraph.citrix.printer;" vertex="1" parent="1">
          <mxGeometry x="940" y="540" width="70" height="70" as="geometry" />
        </mxCell>
        <mxCell id="zaZijYf2OnXckmwoSaqb-215" value="" style="verticalLabelPosition=bottom;aspect=fixed;html=1;verticalAlign=top;strokeColor=none;align=center;outlineConnect=0;shape=mxgraph.citrix.printer;" vertex="1" parent="1">
          <mxGeometry x="1065" y="540" width="70" height="70" as="geometry" />
        </mxCell>
        <mxCell id="zaZijYf2OnXckmwoSaqb-216" value="" style="verticalLabelPosition=bottom;aspect=fixed;html=1;verticalAlign=top;strokeColor=none;align=center;outlineConnect=0;shape=mxgraph.citrix.printer;" vertex="1" parent="1">
          <mxGeometry x="1187.5" y="540" width="70" height="70" as="geometry" />
        </mxCell>
        <mxCell id="zaZijYf2OnXckmwoSaqb-217" value="" style="verticalLabelPosition=bottom;aspect=fixed;html=1;verticalAlign=top;strokeColor=none;align=center;outlineConnect=0;shape=mxgraph.citrix.printer;" vertex="1" parent="1">
          <mxGeometry x="1310" y="540" width="70" height="70" as="geometry" />
        </mxCell>
      </root>
    </mxGraphModel>
  </diagram>
</mxfile>
